<svg width="16" height="19" viewBox="0 0 16 19" fill="none" xmlns="http://www.w3.org/2000/svg">
<path d="M7.99992 11.4004L5.86998 13.4903C5.30999 14.0503 5 14.7803 5 15.5603C5 17.1802 6.34996 18.5002 7.99992 18.5002C9.64988 18.5002 10.9998 17.1802 10.9998 15.5603C10.9998 14.7803 10.6899 14.0403 10.1299 13.4903L7.99992 11.4004Z" fill="#EB3223"/>
<path d="M11.9997 4.4999L11.5597 5.04988C10.3797 6.51984 7.99979 5.68987 7.99979 3.79991V0.5C7.99979 0.5 0 4.4999 0 11.4997C0 14.4196 1.55996 16.9696 3.8899 18.3595C3.32991 17.5696 2.99992 16.5996 2.99992 15.5596C2.99992 14.2396 3.51991 12.9997 4.46988 12.0597L7.99979 8.59979L11.5297 12.0697C12.4797 12.9997 12.9997 14.2396 12.9997 15.5696C12.9997 16.5896 12.6897 17.5296 12.1497 18.3195C14.0396 17.1696 15.4396 15.2596 15.8596 13.0197C16.5196 9.46977 14.7896 6.11985 11.9997 4.4999Z" fill="#EB3223"/>
</svg>
