<svg width="18" height="17" viewBox="0 0 18 17" fill="none" xmlns="http://www.w3.org/2000/svg">
<path d="M1.5385 16.731L0 15.1925H18L16.4615 16.731H1.5385ZM1.01925 14.0003C1.13208 13.7516 1.275 13.5195 1.448 13.304C1.62117 13.0887 1.81158 12.89 2.01925 12.708V4.80803H1.01925V3.92328H2.01925V2.98103H1.01925V2.09653H2.01925V1.15403H1.01925V0.269531H7.2115C7.65583 0.269531 8.03617 0.427697 8.3525 0.744031C8.66883 1.06036 8.827 1.4407 8.827 1.88503V2.09653H17.0193V2.98103H8.827V3.18628C8.827 3.63795 8.66883 4.02111 8.3525 4.33578C8.03617 4.65061 7.65583 4.80803 7.2115 4.80803H5.40375V11.6388C5.79108 11.6978 6.16867 11.7959 6.5365 11.933C6.9045 12.0702 7.24617 12.2631 7.5615 12.5118C7.72567 11.5054 8.20583 10.6846 9.002 10.0493C9.79817 9.41411 10.7135 9.09653 11.748 9.09653C12.929 9.09653 13.9362 9.50303 14.7695 10.316C15.6027 11.129 16.0193 12.1238 16.0193 13.3003V14.0003H1.01925ZM8.523 13.0003H14.9385C14.8732 12.1694 14.5366 11.4778 13.9288 10.9253C13.3211 10.3728 12.5942 10.0965 11.748 10.0965C10.8942 10.0965 10.1596 10.3709 9.54425 10.9195C8.92892 11.4682 8.5885 12.1618 8.523 13.0003ZM5.40375 2.09653H7.827V1.76953C7.827 1.59003 7.76925 1.44261 7.65375 1.32728C7.53842 1.21178 7.391 1.15403 7.2115 1.15403H5.40375V2.09653ZM5.40375 3.92328H7.2115C7.391 3.92328 7.53842 3.86561 7.65375 3.75028C7.76925 3.63495 7.827 3.48753 7.827 3.30803V2.98103H5.40375V3.92328ZM2.90375 2.09653H4.51925V1.15403H2.90375V2.09653ZM2.90375 3.92328H4.51925V2.98103H2.90375V3.92328ZM2.90375 12.1003C3.16025 11.9656 3.42217 11.8614 3.6895 11.7878C3.95683 11.7141 4.23342 11.6585 4.51925 11.621V4.80803H2.90375V12.1003Z" fill="#EF7430"/>
</svg>
