<svg width="16" height="22" viewBox="0 0 16 22" fill="none" xmlns="http://www.w3.org/2000/svg">
<path d="M8 0.714844C4 0.714844 0 7.94913 0 13.2863C0 17.7091 3.57714 21.2863 8 21.2863C12.4229 21.2863 16 17.7091 16 13.2863C16 7.94913 12 0.714844 8 0.714844ZM9.14286 17.8577C5.71429 17.8577 3.42857 15.5834 3.42857 12.1434C3.42857 11.5148 3.94286 11.0006 4.57143 11.0006C5.2 11.0006 5.71429 11.5148 5.71429 12.1434C5.71429 15.4806 8.48 15.572 9.14286 15.572C9.77143 15.572 10.2857 16.0863 10.2857 16.7148C10.2857 17.3434 9.77143 17.8577 9.14286 17.8577Z" fill="#F29D38"/>
</svg>
