<svg width="41" height="30" viewBox="0 0 41 30" fill="none" xmlns="http://www.w3.org/2000/svg">
<path d="M4.5 30C3.4 30 2.45833 29.6328 1.675 28.8984C0.891667 28.1641 0.5 27.2812 0.5 26.25V3.75C0.5 2.71875 0.891667 1.83594 1.675 1.10156C2.45833 0.367188 3.4 0 4.5 0H12.5H20.5001H28.5H36.5C37.6 0 38.5417 0.367188 39.325 1.10156C40.1083 1.83594 40.5 2.71875 40.5 3.75V26.25C40.5 27.2812 40.1083 28.1641 39.325 28.8984C38.5417 29.6328 37.6 30 36.5 30H4.5ZM4.5 26.25H36.5V3.75H4.5V26.25ZM8.5 22.5H32.5L25 13.125L19 20.625L14.5 15L8.5 22.5ZM31.5 13.125C32.3333 13.125 33.0417 12.8516 33.625 12.3047C34.2083 11.7578 34.5 11.0938 34.5 10.3125C34.5 9.53125 34.2083 8.86719 33.625 8.32031C33.0417 7.77344 32.3333 7.5 31.5 7.5C30.6667 7.5 29.9583 7.77344 29.375 8.32031C28.7917 8.86719 28.5 9.53125 28.5 10.3125C28.5 11.0938 28.7917 11.7578 29.375 12.3047C29.9583 12.8516 30.6667 13.125 31.5 13.125Z" fill="#BC9786"/>
</svg>
