<svg width="40" height="30" viewBox="0 0 40 30" fill="none" xmlns="http://www.w3.org/2000/svg">
<path d="M23.2143 11.0625V7.875C24.1964 7.4375 25.2009 7.10938 26.2277 6.89062C27.2545 6.67188 28.3333 6.5625 29.4643 6.5625C30.2381 6.5625 30.997 6.625 31.7411 6.75C32.4851 6.875 33.2143 7.03125 33.9286 7.21875V10.2188C33.2143 9.9375 32.4926 9.72656 31.7634 9.58594C31.0342 9.44531 30.2679 9.375 29.4643 9.375C28.3333 9.375 27.247 9.52344 26.2054 9.82031C25.1637 10.1172 24.1667 10.5312 23.2143 11.0625ZM23.2143 21.375V18.1875C24.1964 17.75 25.2009 17.4219 26.2277 17.2031C27.2545 16.9844 28.3333 16.875 29.4643 16.875C30.2381 16.875 30.997 16.9375 31.7411 17.0625C32.4851 17.1875 33.2143 17.3438 33.9286 17.5312V20.5312C33.2143 20.25 32.4926 20.0391 31.7634 19.8984C31.0342 19.7578 30.2679 19.6875 29.4643 19.6875C28.3333 19.6875 27.247 19.8281 26.2054 20.1094C25.1637 20.3906 24.1667 20.8125 23.2143 21.375ZM23.2143 16.2188V13.0313C24.1964 12.5938 25.2009 12.2656 26.2277 12.0469C27.2545 11.8281 28.3333 11.7188 29.4643 11.7188C30.2381 11.7188 30.997 11.7812 31.7411 11.9062C32.4851 12.0312 33.2143 12.1875 33.9286 12.375V15.375C33.2143 15.0938 32.4926 14.8828 31.7634 14.7422C31.0342 14.6016 30.2679 14.5312 29.4643 14.5312C28.3333 14.5312 27.247 14.6797 26.2054 14.9766C25.1637 15.2734 24.1667 15.6875 23.2143 16.2188ZM9.82143 22.5C11.2202 22.5 12.5818 22.6641 13.9062 22.9922C15.2307 23.3203 16.5476 23.8125 17.8571 24.4688V6C16.6369 5.25 15.3423 4.6875 13.9732 4.3125C12.6042 3.9375 11.2202 3.75 9.82143 3.75C8.75 3.75 7.68601 3.85938 6.62946 4.07812C5.57292 4.29688 4.55357 4.625 3.57143 5.0625V23.625C4.6131 23.25 5.64732 22.9688 6.67411 22.7813C7.70089 22.5938 8.75 22.5 9.82143 22.5ZM21.4286 24.4688C22.7381 23.8125 24.0551 23.3203 25.3795 22.9922C26.7039 22.6641 28.0655 22.5 29.4643 22.5C30.5357 22.5 31.5848 22.5938 32.6116 22.7813C33.6384 22.9688 34.6726 23.25 35.7143 23.625V5.0625C34.7321 4.625 33.7128 4.29688 32.6562 4.07812C31.5997 3.85938 30.5357 3.75 29.4643 3.75C28.0655 3.75 26.6815 3.9375 25.3125 4.3125C23.9435 4.6875 22.6488 5.25 21.4286 6V24.4688ZM19.6429 30C18.2143 28.8125 16.6667 27.8906 15 27.2344C13.3333 26.5781 11.6071 26.25 9.82143 26.25C8.57143 26.25 7.34375 26.4219 6.13839 26.7656C4.93304 27.1094 3.77976 27.5938 2.67857 28.2188C2.05357 28.5625 1.45089 28.5469 0.870536 28.1719C0.290179 27.7969 0 27.25 0 26.5313V3.9375C0 3.59375 0.0818452 3.26562 0.245536 2.95312C0.409226 2.64062 0.654762 2.40625 0.982143 2.25C2.35119 1.5 3.77976 0.9375 5.26786 0.5625C6.75595 0.1875 8.27381 0 9.82143 0C11.5476 0 13.2366 0.234375 14.8884 0.703125C16.5402 1.17188 18.125 1.875 19.6429 2.8125C21.1607 1.875 22.7455 1.17188 24.3973 0.703125C26.0491 0.234375 27.7381 0 29.4643 0C31.0119 0 32.5298 0.1875 34.0179 0.5625C35.506 0.9375 36.9345 1.5 38.3036 2.25C38.631 2.40625 38.8765 2.64062 39.0402 2.95312C39.2039 3.26562 39.2857 3.59375 39.2857 3.9375V26.5313C39.2857 27.25 38.9955 27.7969 38.4152 28.1719C37.8348 28.5469 37.2321 28.5625 36.6071 28.2188C35.506 27.5938 34.3527 27.1094 33.1473 26.7656C31.942 26.4219 30.7143 26.25 29.4643 26.25C27.6786 26.25 25.9524 26.5781 24.2857 27.2344C22.619 27.8906 21.0714 28.8125 19.6429 30Z" fill="#BC9786"/>
</svg>
