<svg width="43" height="52" viewBox="0 0 43 52" fill="none" xmlns="http://www.w3.org/2000/svg">
<path d="M30.5 18C33.26 18 35.48 15.6 35.48 12.6429C35.48 9.68571 33.26 7.28571 30.5 7.28571C27.74 7.28571 25.5 9.68571 25.5 12.6429C25.5 15.6 27.74 18 30.5 18ZM15.5 15.8571C18.82 15.8571 21.48 12.9857 21.48 9.42857C21.48 5.87143 18.82 3 15.5 3C12.18 3 9.5 5.87143 9.5 9.42857C9.5 12.9857 12.18 15.8571 15.5 15.8571ZM30.5 22.2857C26.84 22.2857 19.5 24.2571 19.5 28.1786V33H41.5V28.1786C41.5 24.2571 34.16 22.2857 30.5 22.2857ZM15.5 20.1429C10.84 20.1429 1.5 22.65 1.5 27.6429V33H15.5V28.1786C15.5 26.3571 16.16 23.1643 20.24 20.7429C18.5 20.3571 16.82 20.1429 15.5 20.1429Z" fill="#915B43" fill-opacity="0.6"/>
<path d="M7.12055 47H6.39055V42.77H7.12055V47ZM9.31508 47H8.58508V42.77H9.31508V47ZM13.2896 45.16C13.2896 44.86 13.2363 44.6267 13.1296 44.46C13.0296 44.2867 12.8229 44.1933 12.5096 44.18V43.85L13.2696 42.77H14.0596L13.1896 43.9C13.5029 43.9333 13.7163 44.0567 13.8296 44.27C13.9496 44.4833 14.0096 44.7433 14.0096 45.05V45.55C14.0096 45.8433 13.9696 46.0867 13.8896 46.28C13.8163 46.4733 13.7063 46.6267 13.5596 46.74C13.4129 46.8533 13.2329 46.9367 13.0196 46.99C12.8063 47.0367 12.5629 47.06 12.2896 47.06C12.0096 47.06 11.7629 47.0367 11.5496 46.99C11.3363 46.9367 11.1563 46.8533 11.0096 46.74C10.8629 46.6267 10.7496 46.4733 10.6696 46.28C10.5963 46.0867 10.5596 45.8433 10.5596 45.55V45.21C10.5596 44.9967 10.5996 44.7933 10.6796 44.6C10.7663 44.4067 10.8629 44.2267 10.9696 44.06C11.0763 43.8933 11.1763 43.7433 11.2696 43.61C11.3629 43.47 11.4196 43.35 11.4396 43.25H10.6396V42.77H12.1996V43.02C12.1996 43.1733 12.1529 43.3333 12.0596 43.5C11.9663 43.66 11.8596 43.8333 11.7396 44.02C11.6263 44.2 11.5229 44.4 11.4296 44.62C11.3363 44.84 11.2896 45.08 11.2896 45.34C11.2896 45.5133 11.2996 45.67 11.3196 45.81C11.3463 45.95 11.3929 46.07 11.4596 46.17C11.5329 46.27 11.6329 46.3467 11.7596 46.4C11.8929 46.4533 12.0696 46.48 12.2896 46.48C12.5029 46.48 12.6763 46.4533 12.8096 46.4C12.9429 46.3467 13.0429 46.27 13.1096 46.17C13.1829 46.0633 13.2296 45.94 13.2496 45.8C13.2763 45.6533 13.2896 45.49 13.2896 45.31V45.16ZM17.2088 44.73C17.5488 44.8367 17.8188 44.9733 18.0188 45.14C18.2188 45.3 18.3188 45.53 18.3188 45.83C18.3188 46.05 18.2688 46.2367 18.1688 46.39C18.0755 46.5433 17.9488 46.67 17.7888 46.77C17.6355 46.87 17.4588 46.9433 17.2588 46.99C17.0588 47.03 16.8555 47.05 16.6488 47.05C16.4422 47.05 16.2422 47.0233 16.0488 46.97C15.8622 46.9167 15.6922 46.84 15.5388 46.74C15.3922 46.64 15.2688 46.5167 15.1688 46.37C15.0755 46.2167 15.0222 46.04 15.0088 45.84H15.6788C15.7255 46.0333 15.8388 46.1867 16.0188 46.3C16.1988 46.4133 16.4122 46.47 16.6588 46.47C16.9188 46.47 17.1422 46.4167 17.3288 46.31C17.5155 46.2033 17.6088 46.04 17.6088 45.82C17.6088 45.7333 17.5855 45.66 17.5388 45.6C17.4922 45.5333 17.4188 45.4733 17.3188 45.42C17.2188 45.3667 17.0888 45.3167 16.9288 45.27C16.7688 45.2167 16.5755 45.1633 16.3488 45.11C16.1555 45.0633 15.9788 45.01 15.8188 44.95C15.6655 44.89 15.5322 44.8167 15.4188 44.73C15.3122 44.6367 15.2288 44.5267 15.1688 44.4C15.1088 44.2733 15.0788 44.1233 15.0788 43.95C15.0788 43.7633 15.1222 43.5967 15.2088 43.45C15.3022 43.2967 15.4222 43.1667 15.5688 43.06C15.7222 42.9533 15.8955 42.8733 16.0888 42.82C16.2822 42.7667 16.4788 42.74 16.6788 42.74C16.8788 42.74 17.0722 42.7667 17.2588 42.82C17.4455 42.8667 17.6122 42.9433 17.7588 43.05C17.9122 43.15 18.0355 43.2767 18.1288 43.43C18.2222 43.5833 18.2722 43.76 18.2788 43.96H17.6188C17.5922 43.76 17.4888 43.6067 17.3088 43.5C17.1288 43.3867 16.9188 43.33 16.6788 43.33C16.4455 43.33 16.2388 43.3867 16.0588 43.5C15.8788 43.6067 15.7888 43.7567 15.7888 43.95C15.7888 44.0567 15.8255 44.1467 15.8988 44.22C15.9722 44.2933 16.0722 44.3567 16.1988 44.41C16.3322 44.4633 16.4822 44.5167 16.6488 44.57C16.8222 44.6167 17.0088 44.67 17.2088 44.73ZM17.6646 41.6C17.4179 41.6 17.2646 41.63 17.2046 41.69C17.1379 41.7433 17.1046 41.85 17.1046 42.01V42.11H16.4946V42.02C16.4946 41.8733 16.5079 41.7433 16.5346 41.63C16.5546 41.51 16.6013 41.41 16.6746 41.33C16.7479 41.2433 16.8579 41.18 17.0046 41.14C17.1513 41.0933 17.3513 41.07 17.6046 41.07H18.7846V41.6H17.6646ZM20.5346 47H19.8046V42.77H20.5346V47ZM26.8791 42.77L25.9091 47H25.2691L24.2191 43.72L23.1491 47H22.5091L21.5491 42.77H22.2891L22.9191 45.95L23.9291 42.87H24.4991L25.5091 45.95L26.1391 42.77H26.8791ZM26.9151 41.06V42.16H23.4651V41.63H25.3451V41.06H25.9051V41.63H26.3651V41.06H26.9151ZM27.1951 40.72H26.5751V39.48H27.1951V40.72ZM28.9951 44.83V45.23C28.9951 45.3967 29.0117 45.5567 29.0451 45.71C29.0851 45.8567 29.1484 45.99 29.2351 46.11C29.3284 46.2233 29.4484 46.3133 29.5951 46.38C29.7484 46.4467 29.9351 46.48 30.1551 46.48C30.3751 46.48 30.5584 46.4467 30.7051 46.38C30.8584 46.3133 30.9784 46.2233 31.0651 46.11C31.1584 45.99 31.2251 45.8567 31.2651 45.71C31.3051 45.5567 31.3251 45.3967 31.3251 45.23V44.58C31.3251 44.4133 31.3017 44.2567 31.2551 44.11C31.2084 43.9633 31.1317 43.8333 31.0251 43.72C30.9251 43.6067 30.7951 43.5167 30.6351 43.45C30.4817 43.3833 30.2951 43.35 30.0751 43.35C29.8351 43.35 29.6084 43.4067 29.3951 43.52C29.1817 43.6333 29.0384 43.7967 28.9651 44.01H28.2551C28.2951 43.8167 28.3684 43.6433 28.4751 43.49C28.5884 43.33 28.7251 43.1967 28.8851 43.09C29.0517 42.9767 29.2351 42.89 29.4351 42.83C29.6417 42.77 29.8551 42.74 30.0751 42.74C30.6817 42.74 31.1617 42.8967 31.5151 43.21C31.8751 43.5167 32.0551 43.9733 32.0551 44.58V45.22C32.0551 45.8267 31.8884 46.2867 31.5551 46.6C31.2284 46.9067 30.7617 47.06 30.1551 47.06C29.5484 47.06 29.0817 46.9067 28.7551 46.6C28.4351 46.2867 28.2751 45.8267 28.2751 45.22V44.83H28.9951ZM36.7966 47H36.0966V46.24H36.0866C35.9599 46.5133 35.7766 46.72 35.5366 46.86C35.2966 46.9933 34.9699 47.06 34.5566 47.06C34.3632 47.06 34.1766 47.03 33.9966 46.97C33.8232 46.91 33.6699 46.82 33.5366 46.7C33.4099 46.58 33.3066 46.4333 33.2266 46.26C33.1532 46.0867 33.1166 45.8833 33.1166 45.65V42.77H33.8366V45.47C33.8366 45.8233 33.9366 46.08 34.1366 46.24C34.3366 46.3933 34.5766 46.47 34.8566 46.47C35.0366 46.47 35.1999 46.44 35.3466 46.38C35.4999 46.3133 35.6299 46.23 35.7366 46.13C35.8432 46.0233 35.9266 45.9 35.9866 45.76C36.0466 45.62 36.0766 45.47 36.0766 45.31V42.77H36.7966V47Z" fill="black"/>
</svg>
