<svg width="359" height="299" viewBox="0 0 359 299" fill="none" xmlns="http://www.w3.org/2000/svg">
<g filter="url(#filter0_d_1475_3105)">
<rect x="4" y="3" width="351" height="291" rx="20" fill="white"/>
</g>
<circle cx="97.3535" cy="108.477" r="67.5" fill="#FDF1EA"/>
<path d="M97.3525 40.9766C134.631 40.9766 164.851 71.197 164.851 108.476C164.851 145.754 134.631 175.975 97.3525 175.975C60.0738 175.975 29.8535 145.754 29.8535 108.476C29.8535 71.197 60.0738 40.9766 97.3525 40.9766ZM97.3525 165.85C129.039 165.85 154.727 140.162 154.727 108.476C154.727 76.7888 129.039 51.1015 97.3525 51.1015C65.6656 51.1015 39.9784 76.7888 39.9784 108.476C39.9784 140.162 65.6656 165.85 97.3525 165.85Z" fill="#C9C9C9" fill-opacity="0.6"/>
<path d="M97.3545 46.039C97.3545 43.2431 99.6243 40.9568 102.412 41.1663C113.981 42.0355 125.162 45.8753 134.855 52.3522C145.955 59.7691 154.607 70.311 159.715 82.6448C164.824 94.9786 166.161 108.55 163.557 121.644C161.282 133.078 156.091 143.699 148.526 152.494C146.702 154.614 143.481 154.602 141.504 152.625V152.625C139.527 150.648 139.546 147.456 141.341 145.312C147.506 137.951 151.743 129.138 153.626 119.669C155.84 108.539 154.704 97.0032 150.361 86.5194C146.019 76.0357 138.665 67.0751 129.23 60.7707C121.202 55.4067 111.974 52.1706 102.411 51.3246C99.6255 51.0782 97.3545 48.8349 97.3545 46.039V46.039Z" fill="#EF7430"/>
<path d="M75.1035 94.4766H87.7035V96.3516L81.0035 111.977H77.5785L84.2785 96.8766H75.1035V94.4766ZM96.7639 100.277C97.5972 100.277 98.3639 100.418 99.0639 100.702C99.7639 100.985 100.364 101.385 100.864 101.902C101.364 102.402 101.756 103.002 102.039 103.702C102.322 104.402 102.464 105.16 102.464 105.977C102.464 106.877 102.297 107.71 101.964 108.477C101.631 109.227 101.172 109.877 100.589 110.427C100.006 110.977 99.3139 111.41 98.5139 111.727C97.7139 112.027 96.8389 112.177 95.8889 112.177C94.8889 112.177 93.9555 112.01 93.0889 111.677C92.2222 111.327 91.4722 110.793 90.8389 110.077C90.2055 109.343 89.7055 108.418 89.3389 107.302C88.9722 106.168 88.7889 104.827 88.7889 103.277C88.7889 100.377 89.4055 98.1516 90.6389 96.6016C91.8889 95.0516 93.6555 94.2766 95.9389 94.2766C96.8389 94.2766 97.6555 94.4016 98.3889 94.6516C99.1389 94.9016 99.7805 95.2516 100.314 95.7016C100.864 96.1516 101.306 96.6849 101.639 97.3016C101.989 97.9182 102.214 98.6016 102.314 99.3516H99.3139C99.0972 98.4849 98.7222 97.8182 98.1889 97.3516C97.6555 96.8849 96.9055 96.6516 95.9389 96.6516C94.5222 96.6516 93.4389 97.2266 92.6889 98.3766C91.9389 99.5099 91.5805 101.118 91.6139 103.202H91.6389C92.0389 102.235 92.6722 101.51 93.5389 101.027C94.4222 100.527 95.4972 100.277 96.7639 100.277ZM95.8139 109.752C96.3305 109.752 96.8139 109.66 97.2639 109.477C97.7139 109.277 98.0972 109.01 98.4139 108.677C98.7472 108.343 99.0055 107.96 99.1889 107.527C99.3889 107.077 99.4889 106.593 99.4889 106.077C99.4889 105.543 99.3972 105.052 99.2139 104.602C99.0305 104.152 98.7722 103.768 98.4389 103.452C98.1222 103.118 97.7389 102.86 97.2889 102.677C96.8389 102.493 96.3555 102.402 95.8389 102.402C95.3222 102.402 94.8305 102.493 94.3639 102.677C93.9139 102.86 93.5222 103.118 93.1889 103.452C92.8555 103.768 92.5889 104.143 92.3889 104.577C92.1889 105.01 92.0889 105.477 92.0889 105.977C92.0889 106.51 92.1805 107.01 92.3639 107.477C92.5639 107.943 92.8305 108.343 93.1639 108.677C93.5139 109.01 93.9139 109.277 94.3639 109.477C94.8139 109.66 95.2972 109.752 95.8139 109.752ZM104.021 103.202C104.021 101.785 104.188 100.527 104.521 99.4266C104.871 98.3099 105.354 97.3766 105.971 96.6266C106.604 95.8599 107.354 95.2849 108.221 94.9016C109.104 94.5016 110.088 94.3016 111.171 94.3016C112.238 94.3016 113.213 94.5016 114.096 94.9016C114.979 95.2849 115.738 95.8599 116.371 96.6266C117.004 97.3766 117.488 98.3099 117.821 99.4266C118.171 100.527 118.346 101.785 118.346 103.202C118.346 104.602 118.171 105.86 117.821 106.977C117.488 108.077 117.004 109.01 116.371 109.777C115.754 110.543 115.004 111.135 114.121 111.552C113.238 111.952 112.254 112.152 111.171 112.152C110.088 112.152 109.104 111.952 108.221 111.552C107.354 111.152 106.604 110.568 105.971 109.802C105.354 109.035 104.871 108.102 104.521 107.002C104.188 105.885 104.021 104.618 104.021 103.202ZM115.171 103.202C115.171 101.035 114.804 99.4266 114.071 98.3766C113.354 97.3266 112.388 96.8016 111.171 96.8016C109.954 96.8016 108.988 97.3266 108.271 98.3766C107.554 99.4266 107.196 101.035 107.196 103.202C107.196 105.385 107.554 107.018 108.271 108.102C108.988 109.168 109.954 109.702 111.171 109.702C112.388 109.702 113.354 109.168 114.071 108.102C114.804 107.018 115.171 105.385 115.171 103.202Z" fill="#18171A"/>
<path d="M93.2515 129.277C93.5782 129.277 93.8582 129.197 94.0915 129.039C94.3248 128.871 94.4788 128.637 94.5535 128.339H95.5195C95.4448 128.88 95.2022 129.305 94.7915 129.613C94.3902 129.911 93.8722 130.061 93.2375 130.061C92.4628 130.061 91.8515 129.827 91.4035 129.361C90.9648 128.894 90.7455 128.231 90.7455 127.373C90.7455 126.514 90.9648 125.851 91.4035 125.385C91.8515 124.909 92.4582 124.671 93.2235 124.671C93.8582 124.671 94.3808 124.834 94.7915 125.161C95.2022 125.478 95.4448 125.903 95.5195 126.435H94.5675C94.4928 126.136 94.3342 125.898 94.0915 125.721C93.8582 125.543 93.5782 125.455 93.2515 125.455C92.7942 125.455 92.4302 125.627 92.1595 125.973C91.8888 126.309 91.7535 126.775 91.7535 127.373C91.7535 127.961 91.8888 128.427 92.1595 128.773C92.4302 129.109 92.7942 129.277 93.2515 129.277ZM98.3139 124.671C98.7619 124.671 99.1399 124.769 99.4479 124.965C99.7653 125.161 100.003 125.441 100.162 125.805H100.176V124.741H101.198V129.977H100.218V128.941H100.19C100.05 129.286 99.8119 129.561 99.4759 129.767C99.1493 129.963 98.7619 130.061 98.3139 130.061C98.0153 130.061 97.7353 130 97.4739 129.879C97.2126 129.757 96.9839 129.58 96.7879 129.347C96.5919 129.113 96.4379 128.833 96.3259 128.507C96.2139 128.171 96.1579 127.793 96.1579 127.373C96.1579 126.953 96.2093 126.575 96.3119 126.239C96.4239 125.903 96.5733 125.623 96.7599 125.399C96.9559 125.165 97.1846 124.988 97.4459 124.867C97.7166 124.736 98.0059 124.671 98.3139 124.671ZM98.6779 129.263C99.1259 129.263 99.4853 129.095 99.7559 128.759C100.036 128.413 100.176 127.951 100.176 127.373C100.176 126.803 100.036 126.346 99.7559 126.001C99.4853 125.655 99.1259 125.483 98.6779 125.483C98.2206 125.483 97.8566 125.651 97.5859 125.987C97.3153 126.323 97.1799 126.785 97.1799 127.373C97.1799 127.951 97.3153 128.413 97.5859 128.759C97.8566 129.095 98.2206 129.263 98.6779 129.263ZM102.416 129.977V122.795H103.438V129.977H102.416Z" fill="#18171A"/>
<path d="M193.286 61.9355H190.466V56.9355L187.986 57.1555C187.226 57.2222 186.633 57.3622 186.206 57.5755C185.78 57.7755 185.566 58.1355 185.566 58.6555C185.566 59.0822 185.713 59.4022 186.006 59.6155C186.3 59.8155 186.7 59.9155 187.206 59.9155H188.366V61.9355H187.446C186.833 61.9355 186.24 61.9089 185.666 61.8555C185.093 61.8022 184.58 61.6755 184.126 61.4755C183.686 61.2622 183.333 60.9555 183.066 60.5555C182.8 60.1422 182.666 59.5822 182.666 58.8755C182.666 58.1422 182.826 57.5555 183.146 57.1155C183.466 56.6755 183.9 56.3355 184.446 56.0955C184.993 55.8422 185.633 55.6622 186.366 55.5555C187.1 55.4355 187.88 55.3422 188.706 55.2755L190.466 55.1155C190.44 54.7155 190.38 54.3622 190.286 54.0555C190.206 53.7489 190.066 53.4889 189.866 53.2755C189.68 53.0489 189.42 52.8822 189.086 52.7755C188.766 52.6555 188.366 52.5955 187.886 52.5955C187.353 52.5955 186.88 52.7355 186.466 53.0155C186.066 53.2822 185.78 53.6555 185.606 54.1355H182.906C183 53.5622 183.186 53.0422 183.466 52.5755C183.76 52.0955 184.126 51.6889 184.566 51.3555C185.006 51.0222 185.506 50.7689 186.066 50.5955C186.64 50.4089 187.246 50.3155 187.886 50.3155C188.353 50.3155 188.773 50.3622 189.146 50.4555C189.533 50.5355 189.9 50.6489 190.246 50.7955L191.286 49.5955H194.046L192.086 51.8555C192.473 52.2289 192.766 52.6889 192.966 53.2355C193.18 53.7822 193.286 54.4555 193.286 55.2555V61.9355ZM201.192 55.4355C201.605 55.5822 202.019 55.7422 202.432 55.9155C202.845 56.0755 203.212 56.2889 203.532 56.5555C203.852 56.8089 204.105 57.1289 204.292 57.5155C204.479 57.9022 204.552 58.3755 204.512 58.9355C204.472 59.5355 204.299 60.0355 203.992 60.4355C203.699 60.8355 203.319 61.1622 202.852 61.4155C202.399 61.6555 201.892 61.8289 201.332 61.9355C200.785 62.0422 200.239 62.0955 199.692 62.0955C199.119 62.0955 198.552 62.0289 197.992 61.8955C197.432 61.7489 196.932 61.5289 196.492 61.2355C196.052 60.9422 195.685 60.5689 195.392 60.1155C195.112 59.6622 194.959 59.1289 194.932 58.5155H197.452C197.572 58.9555 197.845 59.3022 198.272 59.5555C198.712 59.7955 199.192 59.9155 199.712 59.9155C199.992 59.9155 200.259 59.8955 200.512 59.8555C200.779 59.8022 201.012 59.7222 201.212 59.6155C201.412 59.4955 201.572 59.3555 201.692 59.1955C201.812 59.0222 201.872 58.8155 201.872 58.5755C201.872 58.2022 201.612 57.9155 201.092 57.7155C200.585 57.5022 199.819 57.2822 198.792 57.0555C198.285 56.9355 197.805 56.8022 197.352 56.6555C196.912 56.4955 196.519 56.2889 196.172 56.0355C195.839 55.7822 195.572 55.4755 195.372 55.1155C195.185 54.7422 195.092 54.2955 195.092 53.7755C195.092 53.2022 195.232 52.7022 195.512 52.2755C195.792 51.8355 196.152 51.4689 196.592 51.1755C197.045 50.8822 197.552 50.6689 198.112 50.5355C198.672 50.3889 199.232 50.3155 199.792 50.3155C200.339 50.3155 200.885 50.3822 201.432 50.5155C201.992 50.6489 202.492 50.8622 202.932 51.1555C203.372 51.4355 203.732 51.8022 204.012 52.2555C204.305 52.7089 204.452 53.2489 204.452 53.8755H201.972C201.892 53.4089 201.639 53.0689 201.212 52.8555C200.799 52.6289 200.325 52.5155 199.792 52.5155C199.552 52.5155 199.312 52.5422 199.072 52.5955C198.832 52.6489 198.619 52.7289 198.432 52.8355C198.245 52.9422 198.092 53.0755 197.972 53.2355C197.852 53.3822 197.792 53.5555 197.792 53.7555C197.792 53.9955 197.892 54.1955 198.092 54.3555C198.292 54.5155 198.552 54.6555 198.872 54.7755C199.192 54.8822 199.552 54.9889 199.952 55.0955C200.365 55.1889 200.779 55.3022 201.192 55.4355ZM204.269 67.0955H201.809V65.1355H200.129V63.4155H204.269V67.0955ZM216.929 47.7755V57.5955C216.929 59.1289 216.469 60.2622 215.549 60.9955C214.642 61.7289 213.302 62.0955 211.529 62.0955C209.742 62.0955 208.389 61.7289 207.469 60.9955C206.562 60.2622 206.109 59.1289 206.109 57.5955V50.3955H208.909V57.1955C208.909 58.0355 209.109 58.6889 209.509 59.1555C209.909 59.6222 210.582 59.8555 211.529 59.8555C212.462 59.8555 213.129 59.6222 213.529 59.1555C213.929 58.6889 214.129 58.0355 214.129 57.1955V47.7755H216.929Z" fill="#18171A"/>
<path d="M182.532 104.895V101.339C182.532 100.461 182.756 99.8405 183.204 99.4765C183.652 99.1125 184.296 98.9305 185.136 98.9305C185.986 98.9305 186.634 99.1125 187.082 99.4765C187.53 99.8405 187.754 100.461 187.754 101.339V104.895H186.732V101.409C186.732 100.895 186.616 100.499 186.382 100.219C186.158 99.9292 185.743 99.7845 185.136 99.7845C184.53 99.7845 184.114 99.9292 183.89 100.219C183.666 100.499 183.554 100.895 183.554 101.409V104.895H182.532ZM187.757 98.1185H182.913V97.3765H187.757V98.1185ZM194.001 104.895H193.021V103.831H193.007C192.829 104.213 192.573 104.503 192.237 104.699C191.901 104.885 191.443 104.979 190.865 104.979C190.594 104.979 190.333 104.937 190.081 104.853C189.838 104.769 189.623 104.643 189.437 104.475C189.259 104.307 189.115 104.101 189.003 103.859C188.9 103.616 188.849 103.331 188.849 103.005V98.9725H189.857V102.753C189.857 103.247 189.997 103.607 190.277 103.831C190.557 104.045 190.893 104.153 191.285 104.153C191.537 104.153 191.765 104.111 191.971 104.027C192.185 103.933 192.367 103.817 192.517 103.677C192.666 103.527 192.783 103.355 192.867 103.159C192.951 102.963 192.993 102.753 192.993 102.529V98.9725H194.001V104.895ZM197.897 96.6065V97.2925C197.598 97.3672 197.365 97.4792 197.197 97.6285C197.029 97.7779 196.898 97.9459 196.805 98.1325C196.721 98.3099 196.665 98.5012 196.637 98.7065C196.618 98.9119 196.609 99.1032 196.609 99.2805V104.895H195.601V99.4345C195.601 99.2479 195.615 99.0565 195.643 98.8605C195.671 98.6552 195.722 98.4592 195.797 98.2725C195.871 98.0859 195.974 97.9132 196.105 97.7545C196.245 97.5865 196.427 97.4512 196.651 97.3485H194.257V96.6065H197.897ZM203.299 97.6285V102.599C203.299 103.467 203.071 104.083 202.613 104.447C202.165 104.801 201.526 104.979 200.695 104.979C199.855 104.979 199.207 104.801 198.749 104.447C198.301 104.083 198.077 103.467 198.077 102.599V98.9725H199.099V102.473C199.099 102.986 199.211 103.397 199.435 103.705C199.669 104.003 200.089 104.153 200.695 104.153C201.293 104.153 201.703 104.003 201.927 103.705C202.161 103.397 202.277 102.986 202.277 102.473V97.6285H203.299Z" fill="#18171A"/>
<path d="M183.82 132.895H182.798V126.973H183.82V132.895ZM190.407 125.629V130.599C190.407 131.467 190.178 132.083 189.721 132.447C189.273 132.801 188.633 132.979 187.803 132.979C186.963 132.979 186.314 132.801 185.857 132.447C185.409 132.083 185.185 131.467 185.185 130.599V126.973H186.207V130.473C186.207 130.986 186.319 131.397 186.543 131.705C186.776 132.003 187.196 132.153 187.803 132.153C188.4 132.153 188.811 132.003 189.035 131.705C189.268 131.397 189.385 130.986 189.385 130.473V125.629H190.407ZM185.495 124.411H186.377C186.536 124.411 186.662 124.462 186.755 124.565C186.839 124.667 186.918 124.779 186.993 124.901C187.058 125.013 187.128 125.12 187.203 125.223C187.278 125.325 187.38 125.377 187.511 125.377H188.981V126.119H187.119C186.96 126.128 186.839 126.081 186.755 125.979C186.662 125.876 186.578 125.764 186.503 125.643C186.428 125.521 186.354 125.409 186.279 125.307C186.204 125.204 186.106 125.153 185.985 125.153H185.495V124.411ZM194.217 132.895V128.835C194.217 128.639 194.18 128.475 194.105 128.345C194.04 128.214 193.951 128.107 193.839 128.023C193.727 127.939 193.596 127.878 193.447 127.841C193.307 127.803 193.158 127.78 192.999 127.771C192.7 127.761 192.416 127.794 192.145 127.869C191.884 127.943 191.599 128.051 191.291 128.191V127.393C191.608 127.234 191.916 127.117 192.215 127.043C192.523 126.968 192.854 126.931 193.209 126.931C193.498 126.931 193.764 126.968 194.007 127.043C194.259 127.108 194.474 127.215 194.651 127.365C194.838 127.505 194.982 127.687 195.085 127.911C195.188 128.125 195.239 128.377 195.239 128.667V132.895H194.217ZM201.437 127.869C201.437 128.354 201.306 128.713 201.045 128.947C200.793 129.18 200.466 129.348 200.065 129.451C200.242 129.469 200.415 129.507 200.583 129.563C200.751 129.609 200.895 129.689 201.017 129.801C201.147 129.913 201.25 130.057 201.325 130.235C201.399 130.403 201.437 130.613 201.437 130.865V132.895H200.429V130.893C200.429 130.687 200.387 130.519 200.303 130.389C200.219 130.258 200.111 130.155 199.981 130.081C199.859 130.006 199.724 129.959 199.575 129.941C199.435 129.913 199.304 129.899 199.183 129.899C199.127 129.899 199.075 129.903 199.029 129.913C198.982 129.913 198.898 129.922 198.777 129.941C198.665 129.95 198.501 129.969 198.287 129.997C198.072 130.015 197.773 130.043 197.391 130.081V132.895H196.383V126.973H197.391V129.283L198.749 129.129C199.309 129.082 199.729 128.965 200.009 128.779C200.289 128.592 200.429 128.289 200.429 127.869V126.973H201.437V127.869ZM202.534 132.895V126.973H203.542V130.529C203.542 130.753 203.589 130.963 203.682 131.159C203.785 131.355 203.916 131.527 204.074 131.677C204.242 131.817 204.438 131.933 204.662 132.027C204.886 132.111 205.124 132.153 205.376 132.153C205.768 132.153 206.081 132.05 206.314 131.845C206.557 131.639 206.678 131.285 206.678 130.781V126.973H207.686V130.991C207.686 131.308 207.635 131.593 207.532 131.845C207.439 132.087 207.308 132.293 207.14 132.461C206.972 132.629 206.772 132.759 206.538 132.853C206.305 132.937 206.058 132.979 205.796 132.979C205.227 132.979 204.742 132.885 204.34 132.699C203.948 132.503 203.682 132.213 203.542 131.831H203.514V132.895H202.534ZM211.498 132.895V128.835C211.498 128.639 211.461 128.475 211.386 128.345C211.321 128.214 211.232 128.107 211.12 128.023C211.008 127.939 210.878 127.878 210.728 127.841C210.588 127.803 210.439 127.78 210.28 127.771C209.982 127.761 209.697 127.794 209.426 127.869C209.165 127.943 208.88 128.051 208.572 128.191V127.393C208.89 127.234 209.198 127.117 209.496 127.043C209.804 126.968 210.136 126.931 210.49 126.931C210.78 126.931 211.046 126.968 211.288 127.043C211.54 127.108 211.755 127.215 211.932 127.365C212.119 127.505 212.264 127.687 212.366 127.911C212.469 128.125 212.52 128.377 212.52 128.667V132.895H211.498ZM214.672 128.051C214.672 128.228 214.714 128.387 214.798 128.527C214.882 128.657 214.989 128.774 215.12 128.877C215.251 128.97 215.391 129.045 215.54 129.101C215.699 129.147 215.853 129.171 216.002 129.171H216.436V129.787H216.044C215.895 129.787 215.736 129.815 215.568 129.871C215.4 129.917 215.241 129.992 215.092 130.095C214.952 130.188 214.835 130.309 214.742 130.459C214.649 130.608 214.602 130.781 214.602 130.977C214.602 131.313 214.719 131.597 214.952 131.831C215.185 132.055 215.605 132.167 216.212 132.167C216.809 132.167 217.211 132.017 217.416 131.719C217.631 131.411 217.738 130.986 217.738 130.445V126.973H218.746V130.599C218.746 131.467 218.531 132.083 218.102 132.447C217.673 132.801 217.043 132.979 216.212 132.979C215.363 132.979 214.714 132.815 214.266 132.489C213.818 132.153 213.594 131.677 213.594 131.061C213.594 130.65 213.706 130.314 213.93 130.053C214.163 129.782 214.457 129.595 214.812 129.493C214.448 129.409 214.159 129.236 213.944 128.975C213.739 128.704 213.636 128.391 213.636 128.037C213.636 127.822 213.645 127.635 213.664 127.477C213.692 127.309 213.729 127.141 213.776 126.973H214.798C214.751 127.159 214.719 127.346 214.7 127.533C214.681 127.71 214.672 127.883 214.672 128.051Z" fill="#18171A"/>
<path d="M186.914 160.895V156.555C186.914 156.48 186.91 156.401 186.9 156.317C186.891 156.233 186.868 156.158 186.83 156.093C186.793 156.018 186.737 155.962 186.662 155.925C186.588 155.878 186.48 155.855 186.34 155.855L185.472 156.303H185.108L184.268 155.855C184.1 155.873 183.96 155.943 183.848 156.065C183.746 156.186 183.662 156.34 183.596 156.527C183.54 156.713 183.503 156.933 183.484 157.185C183.466 157.427 183.456 157.689 183.456 157.969C183.456 158.239 183.48 158.505 183.526 158.767C183.582 159.019 183.666 159.247 183.778 159.453C183.9 159.649 184.063 159.812 184.268 159.943C184.474 160.064 184.73 160.125 185.038 160.125H185.584V160.895H184.996C184.175 160.895 183.54 160.666 183.092 160.209C182.654 159.742 182.434 158.995 182.434 157.969C182.434 157.511 182.458 157.101 182.504 156.737C182.56 156.363 182.649 156.046 182.77 155.785C182.901 155.523 183.069 155.323 183.274 155.183C183.489 155.033 183.755 154.949 184.072 154.931L185.304 155.631L186.536 154.931C187.031 154.931 187.386 155.057 187.6 155.309C187.824 155.551 187.936 155.925 187.936 156.429V160.895H186.914ZM184.7 152.411H185.638C185.797 152.411 185.923 152.462 186.016 152.565C186.1 152.667 186.18 152.779 186.254 152.901C186.32 153.013 186.39 153.12 186.464 153.223C186.539 153.325 186.642 153.377 186.772 153.377H188.298V154.119H186.38C186.222 154.128 186.1 154.081 186.016 153.979C185.923 153.876 185.839 153.764 185.764 153.643C185.69 153.521 185.615 153.409 185.54 153.307C185.466 153.204 185.368 153.153 185.246 153.153H184.7V152.411ZM190.006 157.857V158.417C190.006 158.65 190.03 158.874 190.076 159.089C190.132 159.294 190.221 159.481 190.342 159.649C190.473 159.807 190.641 159.933 190.846 160.027C191.061 160.12 191.322 160.167 191.63 160.167C191.938 160.167 192.195 160.12 192.4 160.027C192.615 159.933 192.783 159.807 192.904 159.649C193.035 159.481 193.128 159.294 193.184 159.089C193.24 158.874 193.268 158.65 193.268 158.417V157.507C193.268 157.273 193.236 157.054 193.17 156.849C193.105 156.643 192.998 156.461 192.848 156.303C192.708 156.144 192.526 156.018 192.302 155.925C192.088 155.831 191.826 155.785 191.518 155.785C191.182 155.785 190.865 155.864 190.566 156.023C190.268 156.181 190.067 156.41 189.964 156.709H188.97C189.026 156.438 189.129 156.195 189.278 155.981C189.437 155.757 189.628 155.57 189.852 155.421C190.086 155.262 190.342 155.141 190.622 155.057C190.912 154.973 191.21 154.931 191.518 154.931C192.368 154.931 193.04 155.15 193.534 155.589C194.038 156.018 194.29 156.657 194.29 157.507V158.403C194.29 159.252 194.057 159.896 193.59 160.335C193.133 160.764 192.48 160.979 191.63 160.979C190.781 160.979 190.128 160.764 189.67 160.335C189.222 159.896 188.998 159.252 188.998 158.403V157.857H190.006ZM199.235 159.551C199.235 160.036 199.109 160.391 198.857 160.615C198.614 160.829 198.283 160.937 197.863 160.937C197.489 160.937 197.186 160.881 196.953 160.769C196.729 160.657 196.551 160.475 196.421 160.223L194.937 157.115H195.987L197.303 159.943C197.349 160.036 197.419 160.101 197.513 160.139C197.615 160.176 197.723 160.195 197.835 160.195C197.937 160.195 198.026 160.162 198.101 160.097C198.175 160.022 198.213 159.887 198.213 159.691V154.973H199.235V159.551ZM200.347 160.895V157.339C200.347 156.461 200.571 155.841 201.019 155.477C201.467 155.113 202.111 154.931 202.951 154.931C203.8 154.931 204.449 155.113 204.897 155.477C205.345 155.841 205.569 156.461 205.569 157.339V160.895H204.547V157.409C204.547 156.895 204.43 156.499 204.197 156.219C203.973 155.929 203.557 155.785 202.951 155.785C202.344 155.785 201.929 155.929 201.705 156.219C201.481 156.499 201.369 156.895 201.369 157.409V160.895H200.347ZM205.571 154.119H200.727V153.377H205.571V154.119ZM211.815 160.895H210.835V159.831H210.821C210.644 160.213 210.387 160.503 210.051 160.699C209.715 160.885 209.258 160.979 208.679 160.979C208.409 160.979 208.147 160.937 207.895 160.853C207.653 160.769 207.438 160.643 207.251 160.475C207.074 160.307 206.929 160.101 206.817 159.859C206.715 159.616 206.663 159.331 206.663 159.005V154.973H207.671V158.753C207.671 159.247 207.811 159.607 208.091 159.831C208.371 160.045 208.707 160.153 209.099 160.153C209.351 160.153 209.58 160.111 209.785 160.027C210 159.933 210.182 159.817 210.331 159.677C210.481 159.527 210.597 159.355 210.681 159.159C210.765 158.963 210.807 158.753 210.807 158.529V154.973H211.815V160.895ZM213.891 157.857V158.417C213.891 158.65 213.915 158.874 213.961 159.089C214.017 159.294 214.106 159.481 214.227 159.649C214.358 159.807 214.526 159.933 214.731 160.027C214.946 160.12 215.207 160.167 215.515 160.167C215.823 160.167 216.08 160.12 216.285 160.027C216.5 159.933 216.668 159.807 216.789 159.649C216.92 159.481 217.013 159.294 217.069 159.089C217.125 158.874 217.153 158.65 217.153 158.417V157.507C217.153 157.273 217.121 157.054 217.055 156.849C216.99 156.643 216.883 156.461 216.733 156.303C216.593 156.144 216.411 156.018 216.187 155.925C215.973 155.831 215.711 155.785 215.403 155.785C215.067 155.785 214.75 155.864 214.451 156.023C214.153 156.181 213.952 156.41 213.849 156.709H212.855C212.911 156.438 213.014 156.195 213.163 155.981C213.322 155.757 213.513 155.57 213.737 155.421C213.971 155.262 214.227 155.141 214.507 155.057C214.797 154.973 215.095 154.931 215.403 154.931C216.253 154.931 216.925 155.15 217.419 155.589C217.923 156.018 218.175 156.657 218.175 157.507V158.403C218.175 159.252 217.942 159.896 217.475 160.335C217.018 160.764 216.365 160.979 215.515 160.979C214.666 160.979 214.013 160.764 213.555 160.335C213.107 159.896 212.883 159.252 212.883 158.403V157.857H213.891ZM218.149 152.579V154.119H213.305V153.377H217.239V152.579H218.149ZM219.241 160.895V157.339C219.241 156.461 219.465 155.841 219.913 155.477C220.361 155.113 221.005 154.931 221.845 154.931C222.695 154.931 223.343 155.113 223.791 155.477C224.239 155.841 224.463 156.461 224.463 157.339V160.895H223.441V157.409C223.441 156.895 223.325 156.499 223.091 156.219C222.867 155.929 222.452 155.785 221.845 155.785C221.239 155.785 220.823 155.929 220.599 156.219C220.375 156.499 220.263 156.895 220.263 157.409V160.895H219.241Z" fill="#747B82"/>
<path d="M290.992 93.6865V94.8545L288.128 101.895H285.984L288.848 95.1585H284.8V93.6865H290.992ZM295.449 96.3425C295.843 96.3425 296.201 96.4119 296.521 96.5505C296.851 96.6785 297.134 96.8652 297.369 97.1105C297.603 97.3452 297.785 97.6279 297.913 97.9585C298.041 98.2785 298.105 98.6305 298.105 99.0145C298.105 99.4519 298.019 99.8519 297.849 100.215C297.689 100.577 297.465 100.892 297.177 101.159C296.889 101.415 296.542 101.617 296.137 101.767C295.742 101.916 295.31 101.991 294.841 101.991C293.763 101.991 292.91 101.628 292.281 100.903C291.662 100.177 291.353 99.1159 291.353 97.7185C291.353 97.0465 291.438 96.4545 291.609 95.9425C291.779 95.4305 292.019 94.9985 292.329 94.6465C292.638 94.2945 293.006 94.0332 293.433 93.8625C293.87 93.6812 294.35 93.5905 294.873 93.5905C295.747 93.5905 296.467 93.8092 297.033 94.2465C297.609 94.6839 297.945 95.2599 298.041 95.9745H296.169C295.998 95.3665 295.566 95.0625 294.873 95.0625C294.286 95.0625 293.843 95.2812 293.545 95.7185C293.257 96.1559 293.118 96.7585 293.129 97.5265H293.145C293.358 97.1105 293.651 96.8119 294.025 96.6305C294.398 96.4385 294.873 96.3425 295.449 96.3425ZM294.809 100.487C295.214 100.487 295.555 100.348 295.833 100.071C296.11 99.7932 296.249 99.4572 296.249 99.0625C296.249 98.6572 296.11 98.3212 295.833 98.0545C295.566 97.7772 295.23 97.6385 294.825 97.6385C294.622 97.6385 294.43 97.6759 294.249 97.7505C294.078 97.8252 293.923 97.9265 293.785 98.0545C293.657 98.1825 293.555 98.3319 293.481 98.5025C293.406 98.6732 293.369 98.8545 293.369 99.0465C293.369 99.2492 293.406 99.4412 293.481 99.6225C293.555 99.7932 293.657 99.9425 293.785 100.071C293.913 100.199 294.062 100.3 294.233 100.375C294.414 100.449 294.606 100.487 294.809 100.487ZM298.664 97.7825C298.664 97.1105 298.75 96.5132 298.92 95.9905C299.091 95.4679 299.331 95.0305 299.64 94.6785C299.95 94.3265 300.318 94.0599 300.744 93.8785C301.182 93.6972 301.667 93.6065 302.2 93.6065C302.734 93.6065 303.214 93.6972 303.64 93.8785C304.078 94.0599 304.451 94.3265 304.76 94.6785C305.07 95.0305 305.31 95.4679 305.48 95.9905C305.651 96.5132 305.736 97.1105 305.736 97.7825C305.736 99.1265 305.416 100.161 304.776 100.887C304.136 101.612 303.278 101.975 302.2 101.975C301.123 101.975 300.264 101.617 299.624 100.903C298.984 100.177 298.664 99.1372 298.664 97.7825ZM303.72 97.7825C303.72 96.8332 303.587 96.1612 303.32 95.7665C303.054 95.3612 302.68 95.1585 302.2 95.1585C301.72 95.1585 301.342 95.3612 301.064 95.7665C300.798 96.1612 300.664 96.8332 300.664 97.7825C300.664 98.7212 300.798 99.3985 301.064 99.8145C301.342 100.231 301.72 100.439 302.2 100.439C302.68 100.439 303.054 100.231 303.32 99.8145C303.587 99.3985 303.72 98.7212 303.72 97.7825Z" fill="#18171A"/>
<path d="M319.076 101.195C319.402 101.195 319.682 101.115 319.916 100.957C320.149 100.789 320.303 100.555 320.378 100.257H321.344C321.269 100.798 321.026 101.223 320.616 101.531C320.214 101.829 319.696 101.979 319.062 101.979C318.287 101.979 317.676 101.745 317.228 101.279C316.789 100.812 316.57 100.149 316.57 99.2905C316.57 98.4319 316.789 97.7692 317.228 97.3025C317.676 96.8265 318.282 96.5885 319.048 96.5885C319.682 96.5885 320.205 96.7519 320.616 97.0785C321.026 97.3959 321.269 97.8205 321.344 98.3525H320.392C320.317 98.0539 320.158 97.8159 319.916 97.6385C319.682 97.4612 319.402 97.3725 319.076 97.3725C318.618 97.3725 318.254 97.5452 317.984 97.8905C317.713 98.2265 317.578 98.6932 317.578 99.2905C317.578 99.8785 317.713 100.345 317.984 100.691C318.254 101.027 318.618 101.195 319.076 101.195ZM324.138 96.5885C324.586 96.5885 324.964 96.6865 325.272 96.8825C325.589 97.0785 325.827 97.3585 325.986 97.7225H326V96.6585H327.022V101.895H326.042V100.859H326.014C325.874 101.204 325.636 101.479 325.3 101.685C324.973 101.881 324.586 101.979 324.138 101.979C323.839 101.979 323.559 101.918 323.298 101.797C323.037 101.675 322.808 101.498 322.612 101.265C322.416 101.031 322.262 100.751 322.15 100.425C322.038 100.089 321.982 99.7105 321.982 99.2905C321.982 98.8705 322.033 98.4925 322.136 98.1565C322.248 97.8205 322.397 97.5405 322.584 97.3165C322.78 97.0832 323.009 96.9059 323.27 96.7845C323.541 96.6539 323.83 96.5885 324.138 96.5885ZM324.502 101.181C324.95 101.181 325.309 101.013 325.58 100.677C325.86 100.331 326 99.8692 326 99.2905C326 98.7212 325.86 98.2639 325.58 97.9185C325.309 97.5732 324.95 97.4005 324.502 97.4005C324.045 97.4005 323.681 97.5685 323.41 97.9045C323.139 98.2405 323.004 98.7025 323.004 99.2905C323.004 99.8692 323.139 100.331 323.41 100.677C323.681 101.013 324.045 101.181 324.502 101.181ZM328.24 101.895V94.7125H329.262V101.895H328.24Z" fill="#ABABAB"/>
<path d="M272.338 128.423V129.895H266.338V128.823C266.402 128.759 266.552 128.609 266.786 128.375C267.021 128.14 267.288 127.879 267.586 127.591C267.896 127.292 268.205 126.993 268.514 126.695C268.824 126.385 269.074 126.135 269.266 125.943C269.522 125.687 269.73 125.468 269.89 125.287C270.05 125.105 270.173 124.945 270.258 124.807C270.354 124.668 270.418 124.545 270.45 124.439C270.482 124.332 270.498 124.225 270.498 124.119C270.498 123.788 270.402 123.527 270.21 123.335C270.018 123.143 269.709 123.047 269.282 123.047C269.037 123.047 268.829 123.089 268.658 123.175C268.498 123.249 268.37 123.351 268.274 123.479C268.178 123.607 268.109 123.756 268.066 123.927C268.024 124.097 268.002 124.273 268.002 124.455H266.258C266.258 124.081 266.312 123.724 266.418 123.383C266.536 123.031 266.712 122.727 266.946 122.471C267.192 122.204 267.501 121.991 267.874 121.831C268.258 121.671 268.728 121.591 269.282 121.591C269.794 121.591 270.237 121.655 270.61 121.783C270.994 121.9 271.309 122.065 271.554 122.279C271.81 122.492 271.997 122.748 272.114 123.047C272.242 123.335 272.306 123.649 272.306 123.991C272.306 124.279 272.28 124.529 272.226 124.743C272.173 124.945 272.077 125.153 271.938 125.367C271.81 125.569 271.624 125.799 271.378 126.055C271.144 126.3 270.84 126.609 270.466 126.983L269.042 128.391V128.423H272.338ZM279.696 128.391H278.704V129.895H276.768V128.391H272.864V127.159L276.976 121.687H278.624V126.919H279.696V128.391ZM276.88 126.967V124.183L274.864 126.967H276.88ZM280.086 125.783C280.086 125.111 280.171 124.513 280.342 123.991C280.513 123.468 280.753 123.031 281.062 122.679C281.371 122.327 281.739 122.06 282.166 121.879C282.603 121.697 283.089 121.607 283.622 121.607C284.155 121.607 284.635 121.697 285.062 121.879C285.499 122.06 285.873 122.327 286.182 122.679C286.491 123.031 286.731 123.468 286.902 123.991C287.073 124.513 287.158 125.111 287.158 125.783C287.158 127.127 286.838 128.161 286.198 128.887C285.558 129.612 284.699 129.975 283.622 129.975C282.545 129.975 281.686 129.617 281.046 128.903C280.406 128.177 280.086 127.137 280.086 125.783ZM285.142 125.783C285.142 124.833 285.009 124.161 284.742 123.767C284.475 123.361 284.102 123.159 283.622 123.159C283.142 123.159 282.763 123.361 282.486 123.767C282.219 124.161 282.086 124.833 282.086 125.783C282.086 126.721 282.219 127.399 282.486 127.815C282.763 128.231 283.142 128.439 283.622 128.439C284.102 128.439 284.475 128.231 284.742 127.815C285.009 127.399 285.142 126.721 285.142 125.783ZM287.664 125.783C287.664 125.111 287.75 124.513 287.92 123.991C288.091 123.468 288.331 123.031 288.64 122.679C288.95 122.327 289.318 122.06 289.744 121.879C290.182 121.697 290.667 121.607 291.2 121.607C291.734 121.607 292.214 121.697 292.64 121.879C293.078 122.06 293.451 122.327 293.76 122.679C294.07 123.031 294.31 123.468 294.48 123.991C294.651 124.513 294.736 125.111 294.736 125.783C294.736 127.127 294.416 128.161 293.776 128.887C293.136 129.612 292.278 129.975 291.2 129.975C290.123 129.975 289.264 129.617 288.624 128.903C287.984 128.177 287.664 127.137 287.664 125.783ZM292.72 125.783C292.72 124.833 292.587 124.161 292.32 123.767C292.054 123.361 291.68 123.159 291.2 123.159C290.72 123.159 290.342 123.361 290.064 123.767C289.798 124.161 289.664 124.833 289.664 125.783C289.664 126.721 289.798 127.399 290.064 127.815C290.342 128.231 290.72 128.439 291.2 128.439C291.68 128.439 292.054 128.231 292.32 127.815C292.587 127.399 292.72 126.721 292.72 125.783Z" fill="#18171A"/>
<path d="M303.076 129.195C303.402 129.195 303.682 129.115 303.916 128.957C304.149 128.789 304.303 128.555 304.378 128.257H305.344C305.269 128.798 305.026 129.223 304.616 129.531C304.214 129.829 303.696 129.979 303.062 129.979C302.287 129.979 301.676 129.745 301.228 129.279C300.789 128.812 300.57 128.149 300.57 127.291C300.57 126.432 300.789 125.769 301.228 125.303C301.676 124.827 302.282 124.589 303.048 124.589C303.682 124.589 304.205 124.752 304.616 125.079C305.026 125.396 305.269 125.821 305.344 126.353H304.392C304.317 126.054 304.158 125.816 303.916 125.639C303.682 125.461 303.402 125.373 303.076 125.373C302.618 125.373 302.254 125.545 301.984 125.891C301.713 126.227 301.578 126.693 301.578 127.291C301.578 127.879 301.713 128.345 301.984 128.691C302.254 129.027 302.618 129.195 303.076 129.195ZM308.138 124.589C308.586 124.589 308.964 124.687 309.272 124.883C309.589 125.079 309.827 125.359 309.986 125.723H310V124.659H311.022V129.895H310.042V128.859H310.014C309.874 129.204 309.636 129.479 309.3 129.685C308.973 129.881 308.586 129.979 308.138 129.979C307.839 129.979 307.559 129.918 307.298 129.797C307.037 129.675 306.808 129.498 306.612 129.265C306.416 129.031 306.262 128.751 306.15 128.425C306.038 128.089 305.982 127.711 305.982 127.291C305.982 126.871 306.033 126.493 306.136 126.157C306.248 125.821 306.397 125.541 306.584 125.317C306.78 125.083 307.009 124.906 307.27 124.785C307.541 124.654 307.83 124.589 308.138 124.589ZM308.502 129.181C308.95 129.181 309.309 129.013 309.58 128.677C309.86 128.331 310 127.869 310 127.291C310 126.721 309.86 126.264 309.58 125.919C309.309 125.573 308.95 125.401 308.502 125.401C308.045 125.401 307.681 125.569 307.41 125.905C307.139 126.241 307.004 126.703 307.004 127.291C307.004 127.869 307.139 128.331 307.41 128.677C307.681 129.013 308.045 129.181 308.502 129.181ZM312.24 129.895V122.713H313.262V129.895H312.24Z" fill="#ABABAB"/>
<path d="M270.319 151.695H272.271V162.895H269.631V153.983L266.975 154.767V152.767L270.319 151.695ZM279.924 155.327C282.084 155.327 283.556 156.863 283.556 158.959C283.556 161.327 281.652 163.023 279.092 163.023C276.18 163.023 274.34 160.975 274.34 157.199C274.34 153.535 276.308 151.567 279.14 151.567C281.524 151.567 283.204 152.879 283.46 154.815H280.916C280.676 153.967 280.1 153.567 279.14 153.567C277.556 153.567 276.74 154.863 276.756 156.927H276.788C277.348 155.807 278.356 155.327 279.924 155.327ZM279.06 160.975C280.148 160.975 281.012 160.095 281.012 159.023C281.012 157.919 280.164 157.087 279.076 157.087C277.956 157.087 277.092 157.935 277.092 159.007C277.092 160.127 277.956 160.975 279.06 160.975ZM293.475 158.831V160.847H292.115V162.895H289.475V160.847H284.147V159.167L289.763 151.695H292.003V158.831H293.475ZM286.867 158.895H289.619V155.103L286.867 158.895ZM293.979 157.279C293.979 153.599 295.899 151.583 298.795 151.583C301.707 151.583 303.627 153.599 303.627 157.279C303.627 160.927 301.723 163.007 298.795 163.007C295.883 163.007 293.979 160.959 293.979 157.279ZM300.875 157.279C300.875 154.703 300.091 153.711 298.795 153.711C297.515 153.711 296.699 154.703 296.699 157.279C296.699 159.839 297.515 160.911 298.795 160.911C300.091 160.911 300.875 159.839 300.875 157.279Z" fill="#76C660"/>
<path d="M313.076 160.195C313.402 160.195 313.682 160.115 313.916 159.957C314.149 159.789 314.303 159.555 314.378 159.257H315.344C315.269 159.798 315.026 160.223 314.616 160.531C314.214 160.829 313.696 160.979 313.062 160.979C312.287 160.979 311.676 160.745 311.228 160.279C310.789 159.812 310.57 159.149 310.57 158.291C310.57 157.432 310.789 156.769 311.228 156.303C311.676 155.827 312.282 155.589 313.048 155.589C313.682 155.589 314.205 155.752 314.616 156.079C315.026 156.396 315.269 156.821 315.344 157.353H314.392C314.317 157.054 314.158 156.816 313.916 156.639C313.682 156.461 313.402 156.373 313.076 156.373C312.618 156.373 312.254 156.545 311.984 156.891C311.713 157.227 311.578 157.693 311.578 158.291C311.578 158.879 311.713 159.345 311.984 159.691C312.254 160.027 312.618 160.195 313.076 160.195ZM318.138 155.589C318.586 155.589 318.964 155.687 319.272 155.883C319.589 156.079 319.827 156.359 319.986 156.723H320V155.659H321.022V160.895H320.042V159.859H320.014C319.874 160.204 319.636 160.479 319.3 160.685C318.973 160.881 318.586 160.979 318.138 160.979C317.839 160.979 317.559 160.918 317.298 160.797C317.037 160.675 316.808 160.498 316.612 160.265C316.416 160.031 316.262 159.751 316.15 159.425C316.038 159.089 315.982 158.711 315.982 158.291C315.982 157.871 316.033 157.493 316.136 157.157C316.248 156.821 316.397 156.541 316.584 156.317C316.78 156.083 317.009 155.906 317.27 155.785C317.541 155.654 317.83 155.589 318.138 155.589ZM318.502 160.181C318.95 160.181 319.309 160.013 319.58 159.677C319.86 159.331 320 158.869 320 158.291C320 157.721 319.86 157.264 319.58 156.919C319.309 156.573 318.95 156.401 318.502 156.401C318.045 156.401 317.681 156.569 317.41 156.905C317.139 157.241 317.004 157.703 317.004 158.291C317.004 158.869 317.139 159.331 317.41 159.677C317.681 160.013 318.045 160.181 318.502 160.181ZM322.24 160.895V153.713H323.262V160.895H322.24Z" fill="#ABABAB"/>
<path d="M30.4358 210.416H35.4058V211.354C33.7958 211.774 33.6558 213.076 33.6558 214.056V221.742H32.2698V214.294C32.2698 213.286 32.5078 212.012 33.7118 211.452H30.4358V210.416ZM39.914 221.742H38.08L35.21 213.664H36.722L39.004 220.538H39.032L41.272 213.664H42.784L39.914 221.742ZM45.1674 221.742H43.8234V213.664H45.1954V218.508C45.1954 219.712 46.3294 220.734 47.7014 220.734C48.7514 220.734 49.4794 220.216 49.4794 218.858V213.664H50.8514V219.138C50.8514 220.888 49.7314 221.854 48.2754 221.854C46.7354 221.854 45.5874 221.322 45.1954 220.286C45.1814 220.286 45.1814 220.286 45.1674 220.286V221.742ZM48.3367 211.48H51.7807V212.516H48.2947C46.1387 212.516 46.1107 211.732 46.1107 210.626V210.416H47.2447V210.598C47.2447 211.312 47.3427 211.508 48.3367 211.48ZM59.5227 213.664V221.742H58.1927V220.286H58.1647C57.6887 221.322 56.8207 221.854 55.2527 221.854C53.7547 221.854 52.4947 220.916 52.4947 219.166V213.664H53.8667V218.816C53.8667 220.174 54.7487 220.734 55.8267 220.734C57.1987 220.734 58.1507 219.712 58.1507 218.508V213.664H59.5227Z" fill="black"/>
<rect x="30.8418" y="229.742" width="79.979" height="5.86127" rx="2.93063" fill="#D2D2D2"/>
<rect x="30.8418" y="229.742" width="14.915" height="5.86127" rx="2.93063" fill="#EF7430"/>
<path d="M34.4287 253.587H38.5867V255.141H31.6007V254.007C32.0347 253.559 34.1207 251.529 35.0867 250.535C36.3747 249.261 36.6547 248.785 36.6547 248.211C36.6547 247.343 36.1227 246.755 35.0307 246.755C33.7987 246.755 33.3367 247.595 33.3367 248.547H31.5167C31.5447 246.797 32.5387 245.229 35.0307 245.229C37.3827 245.229 38.5447 246.475 38.5447 248.071C38.5447 249.331 38.1107 249.863 36.4307 251.543L34.4287 253.559V253.587ZM43.9674 248.575C45.8014 248.575 47.1174 249.919 47.1174 251.781C47.1174 253.713 46.0114 255.253 43.2114 255.253C40.7474 255.253 39.5714 253.685 39.5434 251.935H41.4194C41.4194 252.719 42.0354 253.685 43.2954 253.685C44.4434 253.685 45.2274 252.943 45.2274 251.823C45.2274 250.703 44.4574 249.919 43.3654 249.919C42.5534 249.919 42.0354 250.199 41.5874 250.675H39.7254L40.2714 245.341H46.5574V246.895H41.8394L41.5174 249.541H41.5594C42.0914 248.855 42.9174 248.575 43.9674 248.575Z" fill="black"/>
<path d="M51.516 246.741H52.74L49.704 255.141H48.468L51.516 246.741ZM53.3712 252.837C53.3712 251.733 54.1032 250.953 55.1232 250.737V250.725C54.2112 250.437 53.6712 249.741 53.6712 248.817C53.6712 247.641 54.7152 246.645 56.5512 246.645C58.3872 246.645 59.4192 247.641 59.4192 248.817C59.4192 249.705 58.8912 250.437 57.9792 250.725V250.737C58.9992 250.953 59.7312 251.733 59.7312 252.837C59.7312 254.145 58.6512 255.237 56.5512 255.237C54.4632 255.237 53.3712 254.145 53.3712 252.837ZM58.5552 252.705C58.5552 251.805 57.7272 251.181 56.5512 251.181C55.3872 251.181 54.5592 251.805 54.5592 252.705C54.5592 253.629 55.3872 254.337 56.5512 254.337C57.7272 254.337 58.5552 253.629 58.5552 252.705ZM58.3032 248.937C58.3032 248.121 57.5832 247.509 56.5512 247.509C55.5192 247.509 54.8232 248.121 54.8232 248.937C54.8232 249.741 55.5552 250.245 56.5512 250.245C57.5712 250.245 58.3032 249.741 58.3032 248.937ZM60.5185 250.929C60.5185 248.229 61.8625 246.657 63.8785 246.657C65.8825 246.657 67.2145 248.229 67.2145 250.929C67.2145 253.629 65.8945 255.237 63.8785 255.237C61.8505 255.237 60.5185 253.629 60.5185 250.929ZM65.9785 250.929C65.9785 248.793 65.1385 247.653 63.8785 247.653C62.6185 247.653 61.7785 248.793 61.7785 250.929C61.7785 253.089 62.6185 254.241 63.8785 254.241C65.1385 254.241 65.9785 253.089 65.9785 250.929ZM72.7236 249.021H73.8516V254.949C73.8516 256.545 72.6276 257.337 71.0196 257.337C69.6276 257.337 68.5476 256.833 68.2236 255.549H69.3876C69.6516 256.257 70.2996 256.413 70.9716 256.413C71.9436 256.413 72.6756 256.053 72.6756 254.829V253.749H72.6636C72.3156 254.697 71.5476 255.057 70.5276 255.057C69.0876 255.057 67.9716 253.881 67.9716 252.033C67.9716 250.101 69.1236 248.937 70.5276 248.937C71.5596 248.937 72.3516 249.333 72.7116 250.245H72.7236V249.021ZM70.9236 254.121C71.9676 254.121 72.6876 253.293 72.6876 252.009C72.6876 250.749 71.9916 249.873 70.9236 249.873C69.8796 249.873 69.1716 250.725 69.1716 252.033C69.1716 253.293 69.8796 254.121 70.9236 254.121Z" fill="#ABABAB"/>
<path d="M142.602 213.608C144.898 213.608 146.2 214.504 146.2 216.884V221.742H144.8V217.01C144.8 215.596 144.268 214.77 142.602 214.77C140.95 214.77 140.418 215.596 140.418 217.01V218.382C140.74 217.864 141.314 217.752 142.014 217.752H143.162V218.788H141.958C141.16 218.788 140.418 219.082 140.418 219.894V221.742H139.018V216.884C139.018 214.504 140.32 213.608 142.602 213.608ZM152.906 221.742H151.506V216.198C151.506 215.148 150.708 214.784 149.84 214.756C149.028 214.728 148.356 214.938 147.516 215.33V214.238C148.37 213.79 149.168 213.608 150.134 213.608C151.702 213.608 152.906 214.392 152.906 215.974V221.742ZM158.53 217.402C159.818 217.808 160.658 218.354 160.658 219.502C160.658 221.182 159.048 221.84 157.466 221.84C155.884 221.84 154.442 221.042 154.33 219.53H155.618C155.786 220.258 156.556 220.734 157.48 220.734C158.474 220.734 159.3 220.328 159.3 219.488C159.3 218.816 158.628 218.55 156.892 218.13C155.422 217.794 154.442 217.248 154.47 215.918C154.47 214.462 155.982 213.608 157.522 213.608C159.034 213.608 160.518 214.392 160.574 215.932H159.314C159.23 215.176 158.446 214.728 157.522 214.728C156.626 214.728 155.828 215.19 155.828 215.918C155.828 216.744 157.032 216.954 158.53 217.402ZM158.909 211.452C157.971 211.452 157.845 211.62 157.845 212.208V212.404H156.669V212.222C156.669 211.102 156.879 210.416 158.797 210.416H161.051V211.452H158.909ZM166.161 210.416V211.452H162.843C164.047 212.012 164.131 213.286 164.131 214.294V221.742H162.759V214.056C162.759 213.076 162.731 211.774 161.121 211.354V210.416H166.161ZM171.973 213.664H173.359V218.606C173.359 220.972 172.085 221.854 169.803 221.854C167.521 221.854 166.233 220.972 166.233 218.606V213.664H167.633V218.438C167.633 219.838 168.151 220.734 169.803 220.734C171.455 220.734 171.973 219.838 171.973 218.438V213.664ZM173.768 210.416H178.738V211.354C177.128 211.774 176.988 213.076 176.988 214.056V221.742H175.602V214.294C175.602 213.286 175.84 212.012 177.044 211.452H173.768V210.416ZM179.018 217.598H180.404V218.354C180.404 219.628 180.936 220.748 182.616 220.748C184.296 220.748 184.856 219.628 184.856 218.354V217.122C184.856 215.862 184.142 214.77 182.462 214.77C181.552 214.77 180.628 215.232 180.348 216.03H178.99C179.27 214.546 180.782 213.608 182.462 213.608C183.148 213.608 183.68 213.734 184.198 213.986L185.122 213.076H186.592L185.178 214.518C185.85 215.12 186.242 215.96 186.242 217.122V218.34C186.242 220.65 184.926 221.854 182.616 221.854C180.306 221.854 179.018 220.65 179.018 218.34V217.598ZM189.589 221.742H188.189V213.664H189.589V221.742ZM195.173 213.608C197.007 213.608 198.799 214.42 198.799 216.618V221.742H197.427V216.548C197.427 215.176 196.251 214.77 195.173 214.77C193.493 214.77 192.793 216.184 192.793 217.752C192.793 219.208 193.297 220.692 195.005 220.692H195.691V221.742H194.963C192.737 221.742 191.379 220.538 191.379 217.752C191.379 215.078 192.905 213.608 195.173 213.608ZM204.412 217.402C205.7 217.808 206.54 218.354 206.54 219.502C206.54 221.182 204.93 221.84 203.348 221.84C201.766 221.84 200.324 221.042 200.212 219.53H201.5C201.668 220.258 202.438 220.734 203.362 220.734C204.356 220.734 205.182 220.328 205.182 219.488C205.182 218.816 204.51 218.55 202.774 218.13C201.304 217.794 200.324 217.248 200.352 215.918C200.352 214.462 201.864 213.608 203.404 213.608C204.916 213.608 206.4 214.392 206.456 215.932H205.196C205.112 215.176 204.328 214.728 203.404 214.728C202.508 214.728 201.71 215.19 201.71 215.918C201.71 216.744 202.914 216.954 204.412 217.402ZM215.32 221.742H213.92V215.82C213.92 215.4 213.892 214.868 213.136 214.868L211.96 215.47H211.456L210.308 214.868C209.384 214.98 209.202 216.226 209.202 217.752C209.202 219.208 209.678 220.692 211.358 220.692H212.114V221.742H211.302C209.09 221.742 207.816 220.538 207.816 217.752C207.816 215.246 208.306 213.678 210.042 213.608L211.722 214.56L213.402 213.608C214.746 213.608 215.32 214.294 215.32 215.652V221.742Z" fill="black"/>
<rect x="138.234" y="229.742" width="81.0455" height="5.86127" rx="2.93063" fill="#D2D2D2"/>
<rect x="138.234" y="229.742" width="26.847" height="5.86127" rx="2.93063" fill="#EF7430"/>
<path d="M138.64 252.657C138.64 251.355 139.424 250.515 140.53 250.249V250.235C139.508 249.885 138.976 249.073 138.976 247.995C138.976 246.707 140.138 245.461 142.532 245.461C144.898 245.461 146.06 246.707 146.06 247.995C146.06 249.031 145.528 249.885 144.506 250.235V250.249C145.612 250.515 146.396 251.355 146.396 252.657C146.396 254.113 145.248 255.485 142.532 255.485C139.802 255.485 138.64 254.113 138.64 252.657ZM144.478 252.419C144.478 251.509 143.666 250.823 142.532 250.823C141.412 250.823 140.586 251.509 140.586 252.419C140.586 253.329 141.412 254.029 142.532 254.029C143.666 254.029 144.478 253.329 144.478 252.419ZM144.226 248.205C144.226 247.407 143.512 246.791 142.532 246.791C141.538 246.791 140.838 247.407 140.838 248.205C140.838 249.017 141.552 249.591 142.532 249.591C143.512 249.591 144.226 249.017 144.226 248.205ZM147.143 250.459C147.143 247.253 148.781 245.475 151.259 245.475C153.723 245.475 155.375 247.253 155.375 250.459C155.375 253.637 153.751 255.471 151.259 255.471C148.767 255.471 147.143 253.651 147.143 250.459ZM153.289 250.459C153.289 248.135 152.505 247.099 151.259 247.099C150.027 247.099 149.215 248.135 149.215 250.459C149.215 252.797 150.027 253.861 151.259 253.861C152.505 253.861 153.289 252.797 153.289 250.459Z" fill="black"/>
<path d="M159.746 245.473H160.97L157.934 253.873H156.698L159.746 245.473ZM165.934 249.613C167.038 249.769 167.794 250.453 167.794 251.629C167.794 252.889 166.786 253.969 164.65 253.969C162.658 253.969 161.638 252.709 161.638 251.281H162.766C162.79 252.109 163.462 253.009 164.65 253.009C165.85 253.009 166.57 252.421 166.57 251.485C166.57 250.549 165.766 250.093 164.566 250.093H163.846V249.217H164.566C165.55 249.217 166.342 248.629 166.342 247.753C166.342 246.865 165.67 246.325 164.65 246.325C163.57 246.325 162.934 247.093 162.922 248.065H161.806C161.818 246.517 162.874 245.377 164.65 245.377C166.498 245.377 167.518 246.361 167.518 247.573C167.518 248.701 166.894 249.337 165.934 249.589V249.613ZM168.62 249.661C168.62 246.961 169.964 245.389 171.98 245.389C173.984 245.389 175.316 246.961 175.316 249.661C175.316 252.361 173.996 253.969 171.98 253.969C169.952 253.969 168.62 252.361 168.62 249.661ZM174.08 249.661C174.08 247.525 173.24 246.385 171.98 246.385C170.72 246.385 169.88 247.525 169.88 249.661C169.88 251.821 170.72 252.973 171.98 252.973C173.24 252.973 174.08 251.821 174.08 249.661ZM176.073 249.661C176.073 246.961 177.417 245.389 179.433 245.389C181.437 245.389 182.769 246.961 182.769 249.661C182.769 252.361 181.449 253.969 179.433 253.969C177.405 253.969 176.073 252.361 176.073 249.661ZM181.533 249.661C181.533 247.525 180.693 246.385 179.433 246.385C178.173 246.385 177.333 247.525 177.333 249.661C177.333 251.821 178.173 252.973 179.433 252.973C180.693 252.973 181.533 251.821 181.533 249.661ZM188.278 247.753H189.406V253.681C189.406 255.277 188.182 256.069 186.574 256.069C185.182 256.069 184.102 255.565 183.778 254.281H184.942C185.206 254.989 185.854 255.145 186.526 255.145C187.498 255.145 188.23 254.785 188.23 253.561V252.481H188.218C187.87 253.429 187.102 253.789 186.082 253.789C184.642 253.789 183.526 252.613 183.526 250.765C183.526 248.833 184.678 247.669 186.082 247.669C187.114 247.669 187.906 248.065 188.266 248.977H188.278V247.753ZM186.478 252.853C187.522 252.853 188.242 252.025 188.242 250.741C188.242 249.481 187.546 248.605 186.478 248.605C185.434 248.605 184.726 249.457 184.726 250.765C184.726 252.025 185.434 252.853 186.478 252.853Z" fill="#ABABAB"/>
<path d="M251.391 210.416V211.452H248.073C249.277 212.012 249.361 213.286 249.361 214.294V221.742H247.989V214.056C247.989 213.076 247.961 211.774 246.351 211.354V210.416H251.391ZM257.202 211.83H258.588V218.606C258.588 220.972 257.314 221.854 255.032 221.854C252.75 221.854 251.462 220.972 251.462 218.606V213.664H252.862V218.438C252.862 219.838 253.38 220.734 255.032 220.734C256.684 220.734 257.202 219.838 257.202 218.438V211.83ZM264.192 217.402C265.48 217.808 266.32 218.354 266.32 219.502C266.32 221.182 264.71 221.84 263.128 221.84C261.546 221.84 260.104 221.042 259.992 219.53H261.28C261.448 220.258 262.218 220.734 263.142 220.734C264.136 220.734 264.962 220.328 264.962 219.488C264.962 218.816 264.29 218.55 262.554 218.13C261.084 217.794 260.104 217.248 260.132 215.918C260.132 214.462 261.644 213.608 263.184 213.608C264.696 213.608 266.18 214.392 266.236 215.932H264.976C264.892 215.176 264.108 214.728 263.184 214.728C262.288 214.728 261.49 215.19 261.49 215.918C261.49 216.744 262.694 216.954 264.192 217.402ZM275.1 221.742H273.7V215.82C273.7 215.4 273.672 214.868 272.916 214.868L271.74 215.47H271.236L270.088 214.868C269.164 214.98 268.982 216.226 268.982 217.752C268.982 219.208 269.458 220.692 271.138 220.692H271.894V221.742H271.082C268.87 221.742 267.596 220.538 267.596 217.752C267.596 215.246 268.086 213.678 269.822 213.608L271.502 214.56L273.182 213.608C274.526 213.608 275.1 214.294 275.1 215.652V221.742ZM273.921 210.416H275.167V212.516H268.559V211.48H273.921V210.416ZM283.749 213.664V221.742H282.419V220.286H282.391C281.915 221.322 281.047 221.854 279.479 221.854C277.981 221.854 276.721 220.916 276.721 219.166V213.664H278.093V218.816C278.093 220.174 278.975 220.734 280.053 220.734C281.425 220.734 282.377 219.712 282.377 218.508V213.664H283.749Z" fill="black"/>
<rect x="246.617" y="229.742" width="79.979" height="5.86127" rx="2.93063" fill="#D2D2D2"/>
<rect x="246.617" y="229.742" width="13.9207" height="5.86127" rx="2.93063" fill="#EF7430"/>
<path d="M249.669 245.341H251.181V255.141H249.179V247.161L246.813 247.917V246.335L249.669 245.341ZM258.75 250.143C259.912 250.353 260.71 251.123 260.71 252.467C260.71 253.895 259.576 255.253 256.832 255.253C254.354 255.253 253.108 253.685 253.108 251.935H254.97C254.984 252.719 255.628 253.685 256.86 253.685C257.98 253.685 258.708 253.167 258.708 252.187C258.708 251.277 257.924 250.899 256.832 250.899H255.992V249.527H256.818C257.742 249.527 258.526 248.953 258.526 248.127C258.526 247.231 257.854 246.741 256.86 246.741C255.754 246.741 255.124 247.553 255.124 248.547H253.304C253.318 246.615 254.578 245.229 256.86 245.229C259.24 245.229 260.43 246.433 260.43 247.791C260.43 249.107 259.786 249.779 258.75 250.101V250.143Z" fill="black"/>
<path d="M265.112 246.741H266.336L263.3 255.141H262.064L265.112 246.741ZM269.139 246.741H270.087V255.141H268.875V247.893L266.775 248.709V247.677L269.139 246.741ZM273.641 254.169H277.613V255.141H271.925V254.421C272.537 253.785 274.013 252.321 274.913 251.397C276.101 250.197 276.401 249.717 276.401 249.117C276.401 248.253 275.801 247.605 274.733 247.605C273.545 247.605 272.981 248.373 272.981 249.333H271.865C271.889 247.869 272.789 246.645 274.733 246.645C276.557 246.645 277.553 247.689 277.553 249.033C277.553 250.017 277.157 250.605 275.789 251.985L273.641 254.145V254.169ZM278.474 250.929C278.474 248.229 279.818 246.657 281.834 246.657C283.838 246.657 285.17 248.229 285.17 250.929C285.17 253.629 283.85 255.237 281.834 255.237C279.806 255.237 278.474 253.629 278.474 250.929ZM283.934 250.929C283.934 248.793 283.094 247.653 281.834 247.653C280.574 247.653 279.734 248.793 279.734 250.929C279.734 253.089 280.574 254.241 281.834 254.241C283.094 254.241 283.934 253.089 283.934 250.929ZM290.679 249.021H291.807V254.949C291.807 256.545 290.583 257.337 288.975 257.337C287.583 257.337 286.503 256.833 286.179 255.549H287.343C287.607 256.257 288.255 256.413 288.927 256.413C289.899 256.413 290.631 256.053 290.631 254.829V253.749H290.619C290.271 254.697 289.503 255.057 288.483 255.057C287.043 255.057 285.927 253.881 285.927 252.033C285.927 250.101 287.079 248.937 288.483 248.937C289.515 248.937 290.307 249.333 290.667 250.245H290.679V249.021ZM288.879 254.121C289.923 254.121 290.643 253.293 290.643 252.009C290.643 250.749 289.947 249.873 288.879 249.873C287.835 249.873 287.127 250.725 287.127 252.033C287.127 253.293 287.835 254.121 288.879 254.121Z" fill="#ABABAB"/>
<defs>
<filter id="filter0_d_1475_3105" x="0" y="0" width="359" height="299" filterUnits="userSpaceOnUse" color-interpolation-filters="sRGB">
<feFlood flood-opacity="0" result="BackgroundImageFix"/>
<feColorMatrix in="SourceAlpha" type="matrix" values="0 0 0 0 0 0 0 0 0 0 0 0 0 0 0 0 0 0 127 0" result="hardAlpha"/>
<feOffset dy="1"/>
<feGaussianBlur stdDeviation="2"/>
<feComposite in2="hardAlpha" operator="out"/>
<feColorMatrix type="matrix" values="0 0 0 0 0 0 0 0 0 0 0 0 0 0 0 0 0 0 0.2 0"/>
<feBlend mode="normal" in2="BackgroundImageFix" result="effect1_dropShadow_1475_3105"/>
<feBlend mode="normal" in="SourceGraphic" in2="effect1_dropShadow_1475_3105" result="shape"/>
</filter>
</defs>
</svg>
